<svg width="1920" height="1080" viewBox="0 0 1920 1080" fill="none" xmlns="http://www.w3.org/2000/svg">

    <style>
        .vector1 {
            transform-origin: top left;
            animation: rotate 60s infinite linear forwards;
        }

        .vector2 {
            transform-origin: bottom right;
            animation: rotate 60s infinite linear reverse;
        }

        @keyframes rotate {
            0% {
                transform: rotate(0deg);
            }
            100% {
                transform: rotate(360deg);
            }
        }
    </style>


    <g clip-path="url(#clip0_104_2)">
        <mask id="mask0_104_2" style="mask-type:alpha" maskUnits="userSpaceOnUse" x="0" y="0" width="1920"
            height="1080">
            <path d="M1920 0H0V1080H1920V0Z" fill="white" />
        </mask>
        <g mask="url(#mask0_104_2)">
            <path d="M1920 0H0V1080H1920V0Z" fill="#827197" />
            <path d="M1920 0H0V1080H1920V0Z" fill="url(#paint0_linear_104_2)" fill-opacity="0.2" />
            <path class="vector1"
                d="M-9.15527e-05 503.934C122.218 519.118 245.893 608.01 358.057 557.147C470.146 506.318 506.976 366.726 553.681 252.857C598.804 142.845 648.306 26.633 623.341 -89.623C598.942 -203.241 512.981 -293.763 421.037 -364.831C339.834 -427.596 236.824 -442.957 136.751 -465.731C42.8429 -487.102 -49.3721 -505.525 -144.944 -493.635C-254.37 -480.022 -385.295 -479.549 -452.834 -392.383C-520.534 -305.01 -468.819 -178.614 -474.56 -68.231C-479.681 30.23 -514.125 127.262 -484.753 221.379C-453.272 322.255 -396.405 421.542 -305.108 474.757C-215.017 527.269 -103.482 491.077 -9.15527e-05 503.934Z"
                fill="#AB85B1" />
            <path class="vector1"
                d="M-9.15527e-05 503.934C122.218 519.118 245.893 608.01 358.057 557.147C470.146 506.318 506.976 366.726 553.681 252.857C598.804 142.845 648.306 26.633 623.341 -89.623C598.942 -203.241 512.981 -293.763 421.037 -364.831C339.834 -427.596 236.824 -442.957 136.751 -465.731C42.8429 -487.102 -49.3721 -505.525 -144.944 -493.635C-254.37 -480.022 -385.295 -479.549 -452.834 -392.383C-520.534 -305.01 -468.819 -178.614 -474.56 -68.231C-479.681 30.23 -514.125 127.262 -484.753 221.379C-453.272 322.255 -396.405 421.542 -305.108 474.757C-215.017 527.269 -103.482 491.077 -9.15527e-05 503.934Z"
                fill="url(#paint1_linear_104_2)" fill-opacity="0.2" />
            <path class="vector2"
                d="M1920 1599.12C2024.59 1607.9 2141.75 1618.59 2225.34 1555.12C2308.09 1492.28 2311.34 1372.59 2346.88 1274.95C2379.3 1185.88 2425.37 1102.22 2424.7 1007.44C2423.96 903.654 2405.75 796.15 2342.89 713.561C2278.28 628.659 2182.2 558.028 2075.89 549.095C1973.74 540.512 1897.38 639.121 1798.98 667.859C1700.37 696.659 1580.76 652.173 1501.05 716.98C1419.64 783.17 1400.49 899.306 1386.41 1003.28C1372.42 1106.63 1373.25 1215.17 1421.05 1307.86C1467.84 1398.58 1557.77 1455.01 1645.92 1506.47C1730.93 1556.09 1821.91 1590.88 1920 1599.12Z"
                fill="#A685B1" />
            <path class="vector2"
                d="M1920 1599.12C2024.59 1607.9 2141.75 1618.59 2225.34 1555.12C2308.09 1492.28 2311.34 1372.59 2346.88 1274.95C2379.3 1185.88 2425.37 1102.22 2424.7 1007.44C2423.96 903.654 2405.75 796.15 2342.89 713.561C2278.28 628.659 2182.2 558.028 2075.89 549.095C1973.74 540.512 1897.38 639.121 1798.98 667.859C1700.37 696.659 1580.76 652.173 1501.05 716.98C1419.64 783.17 1400.49 899.306 1386.41 1003.28C1372.42 1106.63 1373.25 1215.17 1421.05 1307.86C1467.84 1398.58 1557.77 1455.01 1645.92 1506.47C1730.93 1556.09 1821.91 1590.88 1920 1599.12Z"
                fill="url(#paint2_linear_104_2)" fill-opacity="0.2" />
        </g>
    </g>
    <defs>
        <linearGradient id="paint0_linear_104_2" x1="960" y1="0" x2="960" y2="1080" gradientUnits="userSpaceOnUse">
            <stop stop-color="#FF00A8" stop-opacity="0" />
            <stop offset="1" stop-color="#FF00A8" />
        </linearGradient>
        <linearGradient id="paint1_linear_104_2" x1="66.7858" y1="-497.373" x2="66.7858" y2="572.698"
            gradientUnits="userSpaceOnUse">
            <stop stop-color="#88007A" />
            <stop offset="1" stop-color="#88007A" stop-opacity="0" />
        </linearGradient>
        <linearGradient id="paint2_linear_104_2" x1="1901.62" y1="548.568" x2="1901.62" y2="1605.8"
            gradientUnits="userSpaceOnUse">
            <stop stop-color="#FDA4FF" />
            <stop offset="1" stop-color="#88007A" stop-opacity="0" />
        </linearGradient>
        <clipPath id="clip0_104_2">
            <rect width="1920" height="1080" fill="white" />
        </clipPath>
    </defs>
</svg>